<?xml version="1.0"?>
<svg width="16" height="64" xmlns="http://www.w3.org/2000/svg" xmlns:svg="http://www.w3.org/2000/svg">
 <g class="layer">
  <title>Layer 1</title>
  <g id="svg_13"/>
  <g id="svg_14">
   <title>heart</title>
   <path d="m11.675422,33c-1.663748,0 -3.095966,1.353557 -3.759387,2.767471c-0.663916,-1.413913 -2.096134,-2.767471 -3.760376,-2.767471c-2.294022,0 -4.155659,1.862131 -4.155659,4.156153c0,4.666706 4.707767,5.890151 7.916035,10.503922c3.032641,-4.585077 7.915045,-5.986127 7.915045,-10.503922c0,-2.294022 -1.861636,-4.156153 -4.155659,-4.156153z" id="svg_15"/>
  </g>
  <g id="svg_11"/>
  <g id="svg_19">
   <title>home</title>
   <path d="m15.990519,57.736821l-7.99526,-6.206321l-7.99526,6.206321l0,-2.5305l7.99526,-6.206321l7.99526,6.206321l0,2.5305zm-1.998815,-0.225366l0,5.996445l-3.99763,0l0,-3.99763l-3.99763,0l0,3.99763l-3.99763,0l0,-5.996445l5.996445,-4.497334l5.996445,4.497334z" id="svg_20"/>
  </g>
  <g id="svg_18"/>
  <g id="svg_24">
   <title>images</title>
   <path d="m15.090738,18.775381l-0.88769,0l0,-0.88769c0,-0.48823 -0.399461,-0.88769 -0.88769,-0.88769l-12.427666,0c-0.48823,0 -0.88769,0.399461 -0.88769,0.88769l0,10.652285c0,0.48823 0.399461,0.88769 0.88769,0.88769l0.88769,0l0,0.88769c0,0.48823 0.399461,0.88769 0.88769,0.88769l12.427666,0c0.48823,0 0.88769,-0.399461 0.88769,-0.88769l0,-10.652285c0,-0.48823 -0.399461,-0.88769 -0.88769,-0.88769zm-13.315356,0.88769l0,8.876904l-0.885915,0c-0.000444,-0.000444 -0.001332,-0.000888 -0.001775,-0.001775l0,-10.649178c0.000444,-0.000444 0.000888,-0.001332 0.001775,-0.001775l12.424559,0c0.000444,0.000444 0.001332,0.000888 0.001775,0.001775l0,0.885915l-10.652285,0c-0.48823,0 -0.88769,0.399461 -0.88769,0.88769l0,0l-0.000444,0.000444zm13.315356,10.65051c-0.000444,0.000444 -0.000888,0.001332 -0.001775,0.001775l-12.424559,0c-0.000444,-0.000444 -0.001332,-0.000888 -0.001775,-0.001775l0,-10.649178c0.000444,-0.000444 0.000888,-0.001332 0.001775,-0.001775l12.424559,0c0.000444,0.000444 0.001332,0.000888 0.001775,0.001775l0,10.649178z" id="svg_25"/>
   <path d="m13.315357,21.882297c0,0.735452 -0.596084,1.331536 -1.331536,1.331536s-1.331536,-0.596084 -1.331536,-1.331536s0.596084,-1.331536 1.331536,-1.331536s1.331536,0.596084 1.331536,1.331536z" id="svg_26"/>
   <path d="m14.203047,29.427666l-10.652285,0l0,-1.775381l3.106916,-5.326142l3.550762,4.438452l0.88769,0l3.106916,-2.663071l0,5.326142z" id="svg_27"/>
  </g>
  <g id="svg_23"/>
  <g id="svg_31">
   <title>pencil</title>
   <path d="m13.448662,0c1.37525,0 2.490493,1.115243 2.490493,2.490493c0,0.560859 -0.185293,1.077885 -0.498099,1.494296l-0.996197,0.996197l-3.48669,-3.48669l0.996197,-0.996197c0.41641,-0.312806 0.933437,-0.498099 1.494296,-0.498099zm-12.452465,11.456268l-0.996197,4.482887l4.482887,-0.996197l9.214824,-9.214824l-3.48669,-3.48669l-9.214824,9.214824zm10.142284,-5.796872l-6.973381,6.973381l-0.858722,-0.858722l6.973381,-6.973381l0.858722,0.858722z" id="svg_32"/>
  </g>
  <g id="svg_30"/>
 </g>

</svg>